<svg xmlns="http://www.w3.org/2000/svg" viewBox="0 0 1280 720" width="1280" height="720">
    
    
    <defs>
        
        
        
        
        
    </defs>
    
    
    <rect width="1280" height="720" fill="#FFFFFF"/>
    
    
    <text x="60" y="70" font-family="-apple-system, BlinkMacSystemFont, 'Segoe UI', sans-serif" 
          font-size="32" font-weight="700" fill="#1A1A1A" letter-spacing="-0.5">战略能力金字塔</text>
    <text x="60" y="100" font-family="-apple-system, BlinkMacSystemFont, 'Segoe UI', sans-serif" 
          font-size="16" fill="#6B7280">Strategic Capability Pyramid · 从基础到顶层的五级递进</text>
    
    
    
    <polygon points="380,140 440,220 320,220" fill="#4633E3"/>
    <text x="380" y="198" text-anchor="middle" font-family="-apple-system, BlinkMacSystemFont, 'Segoe UI', sans-serif" 
          font-size="13" font-weight="700" fill="#FFFFFF">愿景引领</text>
    
    
    <polygon points="320,232 440,232 490,320 270,320" fill="#4633E3" fill-opacity="0.6"/>
    <text x="380" y="286" text-anchor="middle" font-family="-apple-system, BlinkMacSystemFont, 'Segoe UI', sans-serif" 
          font-size="14" font-weight="700" fill="#FFFFFF">创新驱动</text>
    
    
    <polygon points="270,332 490,332 540,420 220,420" fill="#4633E3" fill-opacity="0.4"/>
    <text x="380" y="386" text-anchor="middle" font-family="-apple-system, BlinkMacSystemFont, 'Segoe UI', sans-serif" 
          font-size="15" font-weight="700" fill="#FFFFFF">品牌影响力</text>
    
    
    <polygon points="220,432 540,432 590,520 170,520" fill="#4633E3" fill-opacity="0.25"/>
    <text x="380" y="486" text-anchor="middle" font-family="-apple-system, BlinkMacSystemFont, 'Segoe UI', sans-serif" 
          font-size="15" font-weight="700" fill="#FFFFFF">技术研发能力</text>
    
    
    <polygon points="170,532 590,532 640,620 120,620" fill="#4633E3" fill-opacity="0.25"/>
    <text x="380" y="586" text-anchor="middle" font-family="-apple-system, BlinkMacSystemFont, 'Segoe UI', sans-serif" 
          font-size="16" font-weight="700" fill="#FFFFFF">基础运营体系</text>
    
    
    
    <g>
        <rect x="700" y="130" width="520" height="80" rx="10" fill="#FFFFFF"/>
        <rect x="700" y="130" width="6" height="80" rx="3" fill="#4633E3"/>
        <text x="726" y="158" font-family="-apple-system, BlinkMacSystemFont, 'Segoe UI', sans-serif" 
              font-size="16" font-weight="700" fill="#1A1A1A">愿景引领</text>
        <text x="726" y="182" font-family="-apple-system, BlinkMacSystemFont, 'Segoe UI', sans-serif" 
              font-size="13" fill="#6B7280">确立行业地位与长期方向，统领全局战略布局</text>
    </g>
    <line x1="440" y1="180" x2="700" y2="170" stroke="#4633E3" stroke-width="1" stroke-dasharray="4,3" stroke-opacity="0.4"/>
    
    
    <g>
        <rect x="700" y="228" width="520" height="80" rx="10" fill="#FFFFFF"/>
        <rect x="700" y="228" width="6" height="80" rx="3" fill="#4633E3" fill-opacity="0.6"/>
        <text x="726" y="256" font-family="-apple-system, BlinkMacSystemFont, 'Segoe UI', sans-serif" 
              font-size="16" font-weight="700" fill="#1A1A1A">创新驱动</text>
        <text x="726" y="280" font-family="-apple-system, BlinkMacSystemFont, 'Segoe UI', sans-serif" 
              font-size="13" fill="#6B7280">构建持续创新机制，探索前沿技术与商业模式</text>
    </g>
    <line x1="490" y1="276" x2="700" y2="268" stroke="#4633E3" stroke-opacity="0.6" stroke-width="1" stroke-dasharray="4,3" stroke-opacity="0.4"/>
    
    
    <g>
        <rect x="700" y="326" width="520" height="80" rx="10" fill="#FFFFFF"/>
        <rect x="700" y="326" width="6" height="80" rx="3" fill="#4633E3" fill-opacity="0.4"/>
        <text x="726" y="354" font-family="-apple-system, BlinkMacSystemFont, 'Segoe UI', sans-serif" 
              font-size="16" font-weight="700" fill="#1A1A1A">品牌影响力</text>
        <text x="726" y="378" font-family="-apple-system, BlinkMacSystemFont, 'Segoe UI', sans-serif" 
              font-size="13" fill="#6B7280">打造行业领先品牌认知，建立客户信任与忠诚</text>
    </g>
    <line x1="540" y1="376" x2="700" y2="366" stroke="#4633E3" stroke-opacity="0.4" stroke-width="1" stroke-dasharray="4,3" stroke-opacity="0.4"/>
    
    
    <g>
        <rect x="700" y="424" width="520" height="80" rx="10" fill="#FFFFFF"/>
        <rect x="700" y="424" width="6" height="80" rx="3" fill="#4633E3" fill-opacity="0.25"/>
        <text x="726" y="452" font-family="-apple-system, BlinkMacSystemFont, 'Segoe UI', sans-serif" 
              font-size="16" font-weight="700" fill="#1A1A1A">技术研发能力</text>
        <text x="726" y="476" font-family="-apple-system, BlinkMacSystemFont, 'Segoe UI', sans-serif" 
              font-size="13" fill="#6B7280">500+核心专利，深厚技术积累支撑产品竞争力</text>
    </g>
    <line x1="590" y1="476" x2="700" y2="464" stroke="#4633E3" stroke-opacity="0.25" stroke-width="1" stroke-dasharray="4,3" stroke-opacity="0.4"/>
    
    
    <g>
        <rect x="700" y="522" width="520" height="80" rx="10" fill="#FFFFFF"/>
        <rect x="700" y="522" width="6" height="80" rx="3" fill="#4633E3" fill-opacity="0.25"/>
        <text x="726" y="550" font-family="-apple-system, BlinkMacSystemFont, 'Segoe UI', sans-serif" 
              font-size="16" font-weight="700" fill="#1A1A1A">基础运营体系</text>
        <text x="726" y="574" font-family="-apple-system, BlinkMacSystemFont, 'Segoe UI', sans-serif" 
              font-size="13" fill="#6B7280">精细化运营管理，全球化供应链与智能仓储体系</text>
    </g>
    <line x1="640" y1="576" x2="700" y2="562" stroke="#4633E3" stroke-opacity="0.25" stroke-width="1" stroke-dasharray="4,3" stroke-opacity="0.4"/>

    
    <text x="60" y="680" font-family="-apple-system, BlinkMacSystemFont, 'Segoe UI', sans-serif" 
          font-size="12" fill="#E5E7EB">层级越高代表战略价值越大，底层是上层的支撑基础</text>
</svg>