<svg xmlns="http://www.w3.org/2000/svg" viewBox="0 0 800 500" width="800" height="500">
  <rect width="800" height="500" fill="#FAFAF9"/>
  <g transform="translate(40,40)">
<g id="chart_grouped_bar" data-chart-type="grouped_bar">
<rect x="39.09" y="3.4" width="10" height="10" fill="#4633E3" rx="4" fill-opacity="0.85"/>
<text x="55.09" y="12.75" font-family="Pretendard, 'Apple SD Gothic Neo', 'Malgun Gothic', Arial, sans-serif" font-size="12.8" font-weight="500" fill="#6B7280">국내</text>
<rect x="95.21" y="3.4" width="10" height="10" fill="#4633E3" rx="4" fill-opacity="0.6"/>
<text x="111.21" y="12.75" font-family="Pretendard, 'Apple SD Gothic Neo', 'Malgun Gothic', Arial, sans-serif" font-size="12.8" font-weight="500" fill="#6B7280">해외</text>
<text x="31.09" y="400.03" font-family="Pretendard, 'Apple SD Gothic Neo', 'Malgun Gothic', Arial, sans-serif" font-size="12.8" font-weight="500" fill="#6B7280" text-anchor="end">0억</text>
<line x1="39.09" y1="344.08" x2="712" y2="344.08" stroke="#E5E7EB" stroke-width="1"/>
<text x="31.09" y="348.43" font-family="Pretendard, 'Apple SD Gothic Neo', 'Malgun Gothic', Arial, sans-serif" font-size="12.8" font-weight="500" fill="#6B7280" text-anchor="end">10억</text>
<line x1="39.09" y1="292.48" x2="712" y2="292.48" stroke="#E5E7EB" stroke-width="1"/>
<text x="31.09" y="296.83" font-family="Pretendard, 'Apple SD Gothic Neo', 'Malgun Gothic', Arial, sans-serif" font-size="12.8" font-weight="500" fill="#6B7280" text-anchor="end">20억</text>
<line x1="39.09" y1="240.88" x2="712" y2="240.88" stroke="#E5E7EB" stroke-width="1"/>
<text x="31.09" y="245.23" font-family="Pretendard, 'Apple SD Gothic Neo', 'Malgun Gothic', Arial, sans-serif" font-size="12.8" font-weight="500" fill="#6B7280" text-anchor="end">30억</text>
<line x1="39.09" y1="189.28" x2="712" y2="189.28" stroke="#E5E7EB" stroke-width="1"/>
<text x="31.09" y="193.63" font-family="Pretendard, 'Apple SD Gothic Neo', 'Malgun Gothic', Arial, sans-serif" font-size="12.8" font-weight="500" fill="#6B7280" text-anchor="end">40억</text>
<line x1="39.09" y1="137.68" x2="712" y2="137.68" stroke="#E5E7EB" stroke-width="1"/>
<text x="31.09" y="142.03" font-family="Pretendard, 'Apple SD Gothic Neo', 'Malgun Gothic', Arial, sans-serif" font-size="12.8" font-weight="500" fill="#6B7280" text-anchor="end">50억</text>
<line x1="39.09" y1="86.08" x2="712" y2="86.08" stroke="#E5E7EB" stroke-width="1"/>
<text x="31.09" y="90.43" font-family="Pretendard, 'Apple SD Gothic Neo', 'Malgun Gothic', Arial, sans-serif" font-size="12.8" font-weight="500" fill="#6B7280" text-anchor="end">60억</text>
<line x1="39.09" y1="34.48" x2="712" y2="34.48" stroke="#E5E7EB" stroke-width="1"/>
<text x="31.09" y="38.83" font-family="Pretendard, 'Apple SD Gothic Neo', 'Malgun Gothic', Arial, sans-serif" font-size="12.8" font-weight="500" fill="#6B7280" text-anchor="end">70억</text>
<text x="150.31" y="412.96" font-family="Pretendard, 'Apple SD Gothic Neo', 'Malgun Gothic', Arial, sans-serif" font-size="12.8" font-weight="500" fill="#6B7280" text-anchor="middle">1분기</text>
<text x="300.47" y="412.96" font-family="Pretendard, 'Apple SD Gothic Neo', 'Malgun Gothic', Arial, sans-serif" font-size="12.8" font-weight="500" fill="#6B7280" text-anchor="middle">2분기</text>
<text x="450.62" y="412.96" font-family="Pretendard, 'Apple SD Gothic Neo', 'Malgun Gothic', Arial, sans-serif" font-size="12.8" font-weight="500" fill="#6B7280" text-anchor="middle">3분기</text>
<text x="600.77" y="412.96" font-family="Pretendard, 'Apple SD Gothic Neo', 'Malgun Gothic', Arial, sans-serif" font-size="12.8" font-weight="500" fill="#6B7280" text-anchor="middle">4분기</text>
<line x1="39.09" y1="395.68" x2="712" y2="395.68" stroke="#D4D4D4" stroke-width="1"/>
<rect x="94.7" y="178.96" width="54.61" height="216.72" fill="#4633E3" rx="3" fill-opacity="0.85"/>
<rect x="151.31" y="302.8" width="54.61" height="92.88" fill="#4633E3" rx="3" fill-opacity="0.6"/>
<rect x="244.85" y="148" width="54.61" height="247.68" fill="#4633E3" rx="3" fill-opacity="0.85"/>
<rect x="301.47" y="271.84" width="54.61" height="123.84" fill="#4633E3" rx="3" fill-opacity="0.6"/>
<rect x="395.01" y="111.88" width="54.61" height="283.8" fill="#4633E3" rx="3" fill-opacity="0.85"/>
<rect x="451.62" y="235.72" width="54.61" height="159.96" fill="#4633E3" rx="3" fill-opacity="0.6"/>
<rect x="545.16" y="80.92" width="54.61" height="314.76" fill="#4633E3" rx="3" fill-opacity="0.85"/>
<rect x="601.77" y="168.64" width="54.61" height="227.04" fill="#4633E3" rx="3" fill-opacity="0.6"/>
</g>
  </g>
</svg>
