<svg xmlns="http://www.w3.org/2000/svg" viewBox="0 0 800 500" width="800" height="500">
  <rect width="800" height="500" fill="#FAFAF9"/>
  <g transform="translate(40,40)">
<g id="chart_stacked_bar_100" data-chart-type="stacked_bar_100">
<rect x="44.99" y="3.4" width="10" height="10" fill="#4633E3" rx="4" fill-opacity="0.85"/>
<text x="60.99" y="12.75" font-family="Pretendard, 'Apple SD Gothic Neo', 'Malgun Gothic', Arial, sans-serif" font-size="12.8" font-weight="500" fill="#6B7280">모바일</text>
<rect x="112.18" y="3.4" width="10" height="10" fill="#4633E3" rx="4" fill-opacity="0.6"/>
<text x="128.18" y="12.75" font-family="Pretendard, 'Apple SD Gothic Neo', 'Malgun Gothic', Arial, sans-serif" font-size="12.8" font-weight="500" fill="#6B7280">PC</text>
<rect x="162.99" y="3.4" width="10" height="10" fill="#4633E3" rx="4" fill-opacity="0.4"/>
<text x="178.99" y="12.75" font-family="Pretendard, 'Apple SD Gothic Neo', 'Malgun Gothic', Arial, sans-serif" font-size="12.8" font-weight="500" fill="#6B7280">태블릿</text>
<text x="36.99" y="400.03" font-family="Pretendard, 'Apple SD Gothic Neo', 'Malgun Gothic', Arial, sans-serif" font-size="12.8" font-weight="500" fill="#6B7280" text-anchor="end">0%</text>
<line x1="44.99" y1="323.44" x2="712" y2="323.44" stroke="#E5E7EB" stroke-width="1"/>
<text x="36.99" y="327.79" font-family="Pretendard, 'Apple SD Gothic Neo', 'Malgun Gothic', Arial, sans-serif" font-size="12.8" font-weight="500" fill="#6B7280" text-anchor="end">20%</text>
<line x1="44.99" y1="251.2" x2="712" y2="251.2" stroke="#E5E7EB" stroke-width="1"/>
<text x="36.99" y="255.55" font-family="Pretendard, 'Apple SD Gothic Neo', 'Malgun Gothic', Arial, sans-serif" font-size="12.8" font-weight="500" fill="#6B7280" text-anchor="end">40%</text>
<line x1="44.99" y1="178.96" x2="712" y2="178.96" stroke="#E5E7EB" stroke-width="1"/>
<text x="36.99" y="183.31" font-family="Pretendard, 'Apple SD Gothic Neo', 'Malgun Gothic', Arial, sans-serif" font-size="12.8" font-weight="500" fill="#6B7280" text-anchor="end">60%</text>
<line x1="44.99" y1="106.72" x2="712" y2="106.72" stroke="#E5E7EB" stroke-width="1"/>
<text x="36.99" y="111.07" font-family="Pretendard, 'Apple SD Gothic Neo', 'Malgun Gothic', Arial, sans-serif" font-size="12.8" font-weight="500" fill="#6B7280" text-anchor="end">80%</text>
<line x1="44.99" y1="34.48" x2="712" y2="34.48" stroke="#E5E7EB" stroke-width="1"/>
<text x="36.99" y="38.83" font-family="Pretendard, 'Apple SD Gothic Neo', 'Malgun Gothic', Arial, sans-serif" font-size="12.8" font-weight="500" fill="#6B7280" text-anchor="end">100%</text>
<text x="155.24" y="412.96" font-family="Pretendard, 'Apple SD Gothic Neo', 'Malgun Gothic', Arial, sans-serif" font-size="12.8" font-weight="500" fill="#6B7280" text-anchor="middle">20대</text>
<text x="304.08" y="412.96" font-family="Pretendard, 'Apple SD Gothic Neo', 'Malgun Gothic', Arial, sans-serif" font-size="12.8" font-weight="500" fill="#6B7280" text-anchor="middle">30대</text>
<text x="452.91" y="412.96" font-family="Pretendard, 'Apple SD Gothic Neo', 'Malgun Gothic', Arial, sans-serif" font-size="12.8" font-weight="500" fill="#6B7280" text-anchor="middle">40대</text>
<text x="601.75" y="412.96" font-family="Pretendard, 'Apple SD Gothic Neo', 'Malgun Gothic', Arial, sans-serif" font-size="12.8" font-weight="500" fill="#6B7280" text-anchor="middle">50대</text>
<line x1="44.99" y1="395.68" x2="712" y2="395.68" stroke="#D4D4D4" stroke-width="1"/>
<rect x="100.11" y="99.5" width="110.25" height="296.18" fill="#4633E3" fill-opacity="0.85"/>
<rect x="100.11" y="48.93" width="110.25" height="50.57" fill="#4633E3" fill-opacity="0.6"/>
<rect x="100.11" y="34.48" width="110.25" height="14.45" fill="#4633E3" fill-opacity="0.4"/>
<rect x="248.95" y="128.39" width="110.25" height="267.29" fill="#4633E3" fill-opacity="0.85"/>
<rect x="248.95" y="52.54" width="110.25" height="75.85" fill="#4633E3" fill-opacity="0.6"/>
<rect x="248.95" y="34.48" width="110.25" height="18.06" fill="#4633E3" fill-opacity="0.4"/>
<rect x="397.79" y="175.35" width="110.25" height="220.33" fill="#4633E3" fill-opacity="0.85"/>
<rect x="397.79" y="66.99" width="110.25" height="108.36" fill="#4633E3" fill-opacity="0.6"/>
<rect x="397.79" y="34.48" width="110.25" height="32.51" fill="#4633E3" fill-opacity="0.4"/>
<rect x="546.63" y="233.14" width="110.25" height="162.54" fill="#4633E3" fill-opacity="0.85"/>
<rect x="546.63" y="95.88" width="110.25" height="137.26" fill="#4633E3" fill-opacity="0.6"/>
<rect x="546.63" y="34.48" width="110.25" height="61.4" fill="#4633E3" fill-opacity="0.4"/>
</g>
  </g>
</svg>
