<?xml version="1.0" encoding="UTF-8"?>
<svg xmlns="http://www.w3.org/2000/svg" viewBox="0 0 1280 720" width="1280" height="720">
    
    
    
    <rect width="1280" height="720" fill="#FFFFFF"/>
    
    
    <text x="60" y="55" font-family="-apple-system, BlinkMacSystemFont, 'Segoe UI', 'PingFang SC', 'Microsoft YaHei', sans-serif" 
          font-size="28" font-weight="bold" fill="#1A1A1A">
        <tspan>AI Economic Impact Index Rankings</tspan>
    </text>
    
    <text x="60" y="85" font-family="-apple-system, BlinkMacSystemFont, 'Segoe UI', 'PingFang SC', 'Microsoft YaHei', sans-serif" 
          font-size="16" fill="#6B7280">
        <tspan>Potential to realize AI benefits by economy - 2025 Report</tspan>
    </text>
    
    
    <g id="legend" transform="translate(60, 110)">
        <circle cx="8" cy="8" r="6" fill="#1A1A1A"/>
        <text x="22" y="12" font-family="-apple-system, BlinkMacSystemFont, 'Segoe UI', sans-serif" 
              font-size="13" fill="#1A1A1A">
            <tspan>Overall Score</tspan>
        </text>
        
        <circle cx="138" cy="8" r="6" fill="#4633E3"/>
        <text x="152" y="12" font-family="-apple-system, BlinkMacSystemFont, 'Segoe UI', sans-serif" 
              font-size="13" fill="#1A1A1A">
            <tspan>Innovation</tspan>
        </text>
        
        <circle cx="248" cy="8" r="6" fill="#4633E3" fill-opacity="0.6"/>
        <text x="262" y="12" font-family="-apple-system, BlinkMacSystemFont, 'Segoe UI', sans-serif" 
              font-size="13" fill="#1A1A1A">
            <tspan>Diffusion</tspan>
        </text>
        
        <circle cx="348" cy="8" r="6" fill="#4633E3" fill-opacity="0.4"/>
        <text x="362" y="12" font-family="-apple-system, BlinkMacSystemFont, 'Segoe UI', sans-serif" 
              font-size="13" fill="#1A1A1A">
            <tspan>Adaptation</tspan>
        </text>
    </g>
    
    
    <g id="chartArea" transform="translate(0, 140)">
        
        <line x1="200" y1="0" x2="200" y2="480" stroke="#E5E7EB" stroke-width="1"/>
        <line x1="380" y1="0" x2="380" y2="480" stroke="#E5E7EB" stroke-width="1"/>
        <line x1="560" y1="0" x2="560" y2="480" stroke="#E5E7EB" stroke-width="1"/>
        <line x1="740" y1="0" x2="740" y2="480" stroke="#E5E7EB" stroke-width="1"/>
        <line x1="920" y1="0" x2="920" y2="480" stroke="#E5E7EB" stroke-width="1"/>
        <line x1="1100" y1="0" x2="1100" y2="480" stroke="#E5E7EB" stroke-width="1"/>
        
        
        <line x1="200" y1="480" x2="1200" y2="480" stroke="#E5E7EB" stroke-width="1"/>
        
        
        <text x="200" y="505" font-family="-apple-system, BlinkMacSystemFont, 'Segoe UI', sans-serif" 
              font-size="12" fill="#6B7280" text-anchor="middle"><tspan>0</tspan></text>
        <text x="380" y="505" font-family="-apple-system, BlinkMacSystemFont, 'Segoe UI', sans-serif" 
              font-size="12" fill="#6B7280" text-anchor="middle"><tspan>20</tspan></text>
        <text x="560" y="505" font-family="-apple-system, BlinkMacSystemFont, 'Segoe UI', sans-serif" 
              font-size="12" fill="#6B7280" text-anchor="middle"><tspan>40</tspan></text>
        <text x="740" y="505" font-family="-apple-system, BlinkMacSystemFont, 'Segoe UI', sans-serif" 
              font-size="12" fill="#6B7280" text-anchor="middle"><tspan>60</tspan></text>
        <text x="920" y="505" font-family="-apple-system, BlinkMacSystemFont, 'Segoe UI', sans-serif" 
              font-size="12" fill="#6B7280" text-anchor="middle"><tspan>80</tspan></text>
        <text x="1100" y="505" font-family="-apple-system, BlinkMacSystemFont, 'Segoe UI', sans-serif" 
              font-size="12" fill="#6B7280" text-anchor="middle"><tspan>100</tspan></text>
        
        
        
        
        <g transform="translate(0, 30)">
            <text x="190" y="5" font-family="-apple-system, BlinkMacSystemFont, 'Segoe UI', 'PingFang SC', 'Microsoft YaHei', sans-serif" 
                  font-size="14" fill="#1A1A1A" text-anchor="end"><tspan>US</tspan></text>
            <line x1="812" y1="0" x2="920" y2="0" stroke="#E5E7EB" stroke-width="1.5"/>
            <circle cx="812" cy="0" r="7" fill="#4633E3"/>
            <circle cx="875" cy="0" r="7" fill="#4633E3" fill-opacity="0.6"/>
            <circle cx="920" cy="0" r="7" fill="#4633E3" fill-opacity="0.4"/>
            <circle cx="902" cy="0" r="7" fill="#1A1A1A"/>
        </g>
        
        
        <g transform="translate(0, 78)">
            <text x="190" y="5" font-family="-apple-system, BlinkMacSystemFont, 'Segoe UI', 'PingFang SC', 'Microsoft YaHei', sans-serif" 
                  font-size="14" fill="#1A1A1A" text-anchor="end"><tspan>Singapore</tspan></text>
            <line x1="695" y1="0" x2="875" y2="0" stroke="#E5E7EB" stroke-width="1.5"/>
            <circle cx="695" cy="0" r="7" fill="#4633E3"/>
            <circle cx="812" cy="0" r="7" fill="#4633E3" fill-opacity="0.6"/>
            <circle cx="875" cy="0" r="7" fill="#4633E3" fill-opacity="0.4"/>
            <circle cx="848" cy="0" r="7" fill="#1A1A1A"/>
        </g>
        
        
        <g transform="translate(0, 126)">
            <text x="190" y="5" font-family="-apple-system, BlinkMacSystemFont, 'Segoe UI', 'PingFang SC', 'Microsoft YaHei', sans-serif" 
                  font-size="14" fill="#1A1A1A" text-anchor="end"><tspan>UK</tspan></text>
            <line x1="668" y1="0" x2="902" y2="0" stroke="#E5E7EB" stroke-width="1.5"/>
            <circle cx="668" cy="0" r="7" fill="#4633E3"/>
            <circle cx="785" cy="0" r="7" fill="#4633E3" fill-opacity="0.6"/>
            <circle cx="902" cy="0" r="7" fill="#4633E3" fill-opacity="0.4"/>
            <circle cx="830" cy="0" r="7" fill="#1A1A1A"/>
        </g>
        
        
        <g transform="translate(0, 174)">
            <text x="190" y="5" font-family="-apple-system, BlinkMacSystemFont, 'Segoe UI', 'PingFang SC', 'Microsoft YaHei', sans-serif" 
                  font-size="14" fill="#1A1A1A" text-anchor="end"><tspan>Switzerland</tspan></text>
            <line x1="650" y1="0" x2="884" y2="0" stroke="#E5E7EB" stroke-width="1.5"/>
            <circle cx="650" cy="0" r="7" fill="#4633E3"/>
            <circle cx="758" cy="0" r="7" fill="#4633E3" fill-opacity="0.6"/>
            <circle cx="884" cy="0" r="7" fill="#4633E3" fill-opacity="0.4"/>
            <circle cx="812" cy="0" r="7" fill="#1A1A1A"/>
        </g>
        
        
        <g transform="translate(0, 222)">
            <text x="190" y="5" font-family="-apple-system, BlinkMacSystemFont, 'Segoe UI', 'PingFang SC', 'Microsoft YaHei', sans-serif" 
                  font-size="14" fill="#1A1A1A" text-anchor="end"><tspan>Sweden</tspan></text>
            <line x1="605" y1="0" x2="902" y2="0" stroke="#E5E7EB" stroke-width="1.5"/>
            <circle cx="605" cy="0" r="7" fill="#4633E3"/>
            <circle cx="722" cy="0" r="7" fill="#4633E3" fill-opacity="0.6"/>
            <circle cx="902" cy="0" r="7" fill="#4633E3" fill-opacity="0.4"/>
            <circle cx="785" cy="0" r="7" fill="#1A1A1A"/>
        </g>
        
        
        <g transform="translate(0, 270)">
            <text x="190" y="5" font-family="-apple-system, BlinkMacSystemFont, 'Segoe UI', 'PingFang SC', 'Microsoft YaHei', sans-serif" 
                  font-size="14" fill="#1A1A1A" text-anchor="end"><tspan>South Korea</tspan></text>
            <line x1="632" y1="0" x2="785" y2="0" stroke="#E5E7EB" stroke-width="1.5"/>
            <circle cx="632" cy="0" r="7" fill="#4633E3"/>
            <circle cx="695" cy="0" r="7" fill="#4633E3" fill-opacity="0.6"/>
            <circle cx="785" cy="0" r="7" fill="#4633E3" fill-opacity="0.4"/>
            <circle cx="758" cy="0" r="7" fill="#1A1A1A"/>
        </g>
        
        
        <g transform="translate(0, 318)">
            <text x="190" y="5" font-family="-apple-system, BlinkMacSystemFont, 'Segoe UI', 'PingFang SC', 'Microsoft YaHei', sans-serif" 
                  font-size="14" fill="#1A1A1A" text-anchor="end"><tspan>Germany</tspan></text>
            <line x1="578" y1="0" x2="812" y2="0" stroke="#E5E7EB" stroke-width="1.5"/>
            <circle cx="578" cy="0" r="7" fill="#4633E3"/>
            <circle cx="668" cy="0" r="7" fill="#4633E3" fill-opacity="0.6"/>
            <circle cx="812" cy="0" r="7" fill="#4633E3" fill-opacity="0.4"/>
            <circle cx="722" cy="0" r="7" fill="#1A1A1A"/>
        </g>
        
        
        <g transform="translate(0, 366)">
            <text x="190" y="5" font-family="-apple-system, BlinkMacSystemFont, 'Segoe UI', 'PingFang SC', 'Microsoft YaHei', sans-serif" 
                  font-size="14" fill="#1A1A1A" text-anchor="end"><tspan>China</tspan></text>
            <line x1="542" y1="0" x2="695" y2="0" stroke="#E5E7EB" stroke-width="1.5"/>
            <circle cx="542" cy="0" r="7" fill="#4633E3"/>
            <circle cx="605" cy="0" r="7" fill="#4633E3" fill-opacity="0.6"/>
            <circle cx="695" cy="0" r="7" fill="#4633E3" fill-opacity="0.4"/>
            <circle cx="668" cy="0" r="7" fill="#1A1A1A"/>
        </g>
        
        
        <g transform="translate(0, 414)">
            <text x="190" y="5" font-family="-apple-system, BlinkMacSystemFont, 'Segoe UI', 'PingFang SC', 'Microsoft YaHei', sans-serif" 
                  font-size="14" fill="#1A1A1A" text-anchor="end"><tspan>Brazil</tspan></text>
            <line x1="362" y1="0" x2="542" y2="0" stroke="#E5E7EB" stroke-width="1.5"/>
            <circle cx="362" cy="0" r="7" fill="#4633E3"/>
            <circle cx="452" cy="0" r="7" fill="#4633E3" fill-opacity="0.6"/>
            <circle cx="542" cy="0" r="7" fill="#4633E3" fill-opacity="0.4"/>
            <circle cx="515" cy="0" r="7" fill="#1A1A1A"/>
        </g>
        
        
        <g transform="translate(0, 462)">
            <text x="190" y="5" font-family="-apple-system, BlinkMacSystemFont, 'Segoe UI', 'PingFang SC', 'Microsoft YaHei', sans-serif" 
                  font-size="14" fill="#1A1A1A" text-anchor="end"><tspan>Argentina</tspan></text>
            <line x1="308" y1="0" x2="488" y2="0" stroke="#E5E7EB" stroke-width="1.5"/>
            <circle cx="308" cy="0" r="7" fill="#4633E3"/>
            <circle cx="398" cy="0" r="7" fill="#4633E3" fill-opacity="0.6"/>
            <circle cx="488" cy="0" r="7" fill="#4633E3" fill-opacity="0.4"/>
            <circle cx="452" cy="0" r="7" fill="#1A1A1A"/>
        </g>
    </g>
    
    
    <text x="60" y="695" font-family="-apple-system, BlinkMacSystemFont, 'Segoe UI', 'PingFang SC', 'Microsoft YaHei', sans-serif" 
          font-size="12" fill="#6B7280">
        <tspan>Source: Capital Economics AI Economic Impact Index</tspan>
    </text>
</svg>
