<svg xmlns="http://www.w3.org/2000/svg" viewBox="0 0 1280 720" width="1280" height="720">
    
    
    <defs>
        
        
    </defs>
    
    
    <rect width="1280" height="720" fill="#FFFFFF"/>
    
    
    <text x="60" y="65" font-family="-apple-system, BlinkMacSystemFont, 'Segoe UI', sans-serif" 
          font-size="32" font-weight="700" fill="#1A1A1A" letter-spacing="-0.5">数字化转型六阶段</text>
    <text x="60" y="95" font-family="-apple-system, BlinkMacSystemFont, 'Segoe UI', sans-serif" 
          font-size="16" fill="#6B7280">Digital Transformation Roadmap · 从基础到引领的递进路径</text>
    
    
    
    <g transform="translate(80, 480)">
        
        <polygon points="0,0 130,-38 260,0 130,38" fill="#4633E3"/>
        
        <polygon points="0,0 0,72 130,110 130,38" fill="#4633E3" fill-opacity="0.6"/>
        
        <polygon points="130,38 130,110 260,72 260,0" fill="#4633E3" fill-opacity="0.4"/>
        
        <text x="130" y="10" text-anchor="middle" font-family="-apple-system, BlinkMacSystemFont, 'Segoe UI', sans-serif" 
              font-size="26" font-weight="800" fill="#FFFFFF">1</text>
        
        <text x="130" y="148" text-anchor="middle" font-family="-apple-system, BlinkMacSystemFont, 'Segoe UI', sans-serif" 
              font-size="14" font-weight="700" fill="#1A1A1A">基础信息化</text>
        <text x="130" y="168" text-anchor="middle" font-family="-apple-system, BlinkMacSystemFont, 'Segoe UI', sans-serif" 
              font-size="11" fill="#6B7280">IT基础设施建设</text>
    </g>
    
    
    <g transform="translate(230, 410)">
        <polygon points="0,0 130,-38 260,0 130,38" fill="#4633E3" fill-opacity="0.25"/>
        <polygon points="0,0 0,72 130,110 130,38" fill="#4633E3" fill-opacity="0.25"/>
        <polygon points="130,38 130,110 260,72 260,0" fill="#4633E3" fill-opacity="0.25"/>
        <text x="130" y="10" text-anchor="middle" font-family="-apple-system, BlinkMacSystemFont, 'Segoe UI', sans-serif" 
              font-size="26" font-weight="800" fill="#FFFFFF">2</text>
        <text x="130" y="148" text-anchor="middle" font-family="-apple-system, BlinkMacSystemFont, 'Segoe UI', sans-serif" 
              font-size="14" font-weight="700" fill="#1A1A1A">流程数字化</text>
        <text x="130" y="168" text-anchor="middle" font-family="-apple-system, BlinkMacSystemFont, 'Segoe UI', sans-serif" 
              font-size="11" fill="#6B7280">核心业务在线化</text>
    </g>
    
    
    <g transform="translate(380, 340)">
        <polygon points="0,0 130,-38 260,0 130,38" fill="#4633E3" fill-opacity="0.25"/>
        <polygon points="0,0 0,72 130,110 130,38" fill="#4633E3" fill-opacity="0.25"/>
        <polygon points="130,38 130,110 260,72 260,0" fill="#4633E3" fill-opacity="0.25"/>
        <text x="130" y="10" text-anchor="middle" font-family="-apple-system, BlinkMacSystemFont, 'Segoe UI', sans-serif" 
              font-size="26" font-weight="800" fill="#FFFFFF">3</text>
        <text x="130" y="148" text-anchor="middle" font-family="-apple-system, BlinkMacSystemFont, 'Segoe UI', sans-serif" 
              font-size="14" font-weight="700" fill="#1A1A1A">数据驱动</text>
        <text x="130" y="168" text-anchor="middle" font-family="-apple-system, BlinkMacSystemFont, 'Segoe UI', sans-serif" 
              font-size="11" fill="#6B7280">决策数据化运营</text>
    </g>
    
    
    <g transform="translate(530, 270)">
        <polygon points="0,0 130,-38 260,0 130,38" fill="#4633E3" fill-opacity="0.25"/>
        <polygon points="0,0 0,72 130,110 130,38" fill="#4633E3" fill-opacity="0.25"/>
        <polygon points="130,38 130,110 260,72 260,0" fill="#4633E3" fill-opacity="0.25"/>
        <text x="130" y="10" text-anchor="middle" font-family="-apple-system, BlinkMacSystemFont, 'Segoe UI', sans-serif" 
              font-size="26" font-weight="800" fill="#FFFFFF">4</text>
        <text x="130" y="148" text-anchor="middle" font-family="-apple-system, BlinkMacSystemFont, 'Segoe UI', sans-serif" 
              font-size="14" font-weight="700" fill="#1A1A1A">智能赋能</text>
        <text x="130" y="168" text-anchor="middle" font-family="-apple-system, BlinkMacSystemFont, 'Segoe UI', sans-serif" 
              font-size="11" fill="#6B7280">AI+业务深度融合</text>
    </g>
    
    
    <g transform="translate(680, 200)">
        <polygon points="0,0 130,-38 260,0 130,38" fill="#4633E3" fill-opacity="0.25"/>
        <polygon points="0,0 0,72 130,110 130,38" fill="#4633E3" fill-opacity="0.25"/>
        <polygon points="130,38 130,110 260,72 260,0" fill="#4633E3" fill-opacity="0.25"/>
        <text x="130" y="10" text-anchor="middle" font-family="-apple-system, BlinkMacSystemFont, 'Segoe UI', sans-serif" 
              font-size="26" font-weight="800" fill="#FFFFFF">5</text>
        <text x="130" y="148" text-anchor="middle" font-family="-apple-system, BlinkMacSystemFont, 'Segoe UI', sans-serif" 
              font-size="14" font-weight="700" fill="#1A1A1A">生态连接</text>
        <text x="130" y="168" text-anchor="middle" font-family="-apple-system, BlinkMacSystemFont, 'Segoe UI', sans-serif" 
              font-size="11" fill="#6B7280">产业链协同平台</text>
    </g>
    
    
    <g transform="translate(830, 130)">
        <polygon points="0,0 130,-38 260,0 130,38" fill="#4633E3" fill-opacity="0.25"/>
        <polygon points="0,0 0,72 130,110 130,38" fill="#4633E3" fill-opacity="0.25"/>
        <polygon points="130,38 130,110 260,72 260,0" fill="#4633E3" fill-opacity="0.25"/>
        <text x="130" y="10" text-anchor="middle" font-family="-apple-system, BlinkMacSystemFont, 'Segoe UI', sans-serif" 
              font-size="26" font-weight="800" fill="#FFFFFF">6</text>
        <text x="130" y="148" text-anchor="middle" font-family="-apple-system, BlinkMacSystemFont, 'Segoe UI', sans-serif" 
              font-size="14" font-weight="700" fill="#1A1A1A">全面引领</text>
        <text x="130" y="168" text-anchor="middle" font-family="-apple-system, BlinkMacSystemFont, 'Segoe UI', sans-serif" 
              font-size="11" fill="#6B7280">行业标准制定者</text>
    </g>
    
    
    <line x1="1145" y1="620" x2="1145" y2="145" stroke="#4633E3" stroke-opacity="0.25" stroke-width="2" stroke-opacity="0.2"/>
    <polygon points="1145,140 1135,158 1155,158" fill="#4633E3" fill-opacity="0.25" fill-opacity="0.3"/>
    <text x="1160" y="400" font-family="-apple-system, BlinkMacSystemFont, 'Segoe UI', sans-serif" 
          font-size="13" fill="#E5E7EB" transform="rotate(-90,1160,400)">成熟度递增</text>
    
    
    <rect x="60" y="650" width="1060" height="50" rx="10" fill="#FFFFFF"/>
    <text x="590" y="680" text-anchor="middle" font-family="-apple-system, BlinkMacSystemFont, 'Segoe UI', sans-serif" 
          font-size="14" fill="#6B7280">从基础信息化到全面引领，六大阶梯逐步构建企业数字化核心竞争力</text>
</svg>