<svg xmlns="http://www.w3.org/2000/svg" viewBox="0 0 1280 720" width="1280" height="720">
    
    
    <defs>
        
        
        
        
        
        
        
        
        
        
        
        
        
        
        
        
        
    </defs>
    
    
    <rect width="1280" height="720" fill="{{TOKEN:colors.surface}}"/>
    
    
    <text x="640" y="60" font-family="-apple-system, BlinkMacSystemFont, 'Segoe UI', 'PingFang SC', 'Microsoft YaHei', sans-serif" 
          font-size="32" font-weight="bold" fill="{{TOKEN:colors.text}}" text-anchor="middle">
        <tspan>业务核心指标仪表盘</tspan>
    </text>
    
    <text x="640" y="95" font-family="-apple-system, BlinkMacSystemFont, 'Segoe UI', 'PingFang SC', 'Microsoft YaHei', sans-serif" 
          font-size="18" fill="{{TOKEN:colors.text-secondary}}" text-anchor="middle">
        <tspan>2025年第四季度实时数据</tspan>
    </text>
    
    
    <g id="gauge1" transform="translate(220, 380)">
        
        <path d="M -150,0 A 150,150 0 0,1 150,0" fill="none" stroke="{{TOKEN:colors.border}}" stroke-width="30" stroke-linecap="round"/>
        
        
        
        <path d="M -150,0 A 150,150 0 0,1 -46.35,-142.65" fill="none" stroke="{{TOKEN:colors.accent}}" stroke-width="30" stroke-linecap="round"/>
        
        <path d="M -46.35,-142.65 A 150,150 0 0,1 58.68,-138.05" fill="none" stroke="{{TOKEN:colors.accent}}" stroke-opacity="0.6" stroke-width="30" stroke-linecap="round"/>
        
        <path d="M 58.68,-138.05 A 150,150 0 0,1 150,0" fill="none" stroke="{{TOKEN:colors.accent}}" stroke-opacity="0.4" stroke-width="30" stroke-linecap="round"/>
        
        
        <path d="M -150,0 A 150,150 0 0,1 103.95,-108.45" fill="none" stroke="{{TOKEN:colors.accent}}" stroke-opacity="0.25" stroke-width="30" stroke-linecap="round"/>
        
        
        <line x1="-135" y1="0" x2="-120" y2="0" stroke="{{TOKEN:colors.text-secondary}}" stroke-width="2"/>
        <line x1="-95.5" y1="-95.5" x2="-84.85" y2="-84.85" stroke="{{TOKEN:colors.text-secondary}}" stroke-width="2"/>
        <line x1="0" y1="-135" x2="0" y2="-120" stroke="{{TOKEN:colors.text-secondary}}" stroke-width="2"/>
        <line x1="95.5" y1="-95.5" x2="84.85" y2="-84.85" stroke="{{TOKEN:colors.text-secondary}}" stroke-width="2"/>
        <line x1="135" y1="0" x2="120" y2="0" stroke="{{TOKEN:colors.text-secondary}}" stroke-width="2"/>
        
        
        <text x="-155" y="25" font-family="-apple-system, BlinkMacSystemFont, 'Segoe UI', sans-serif" 
              font-size="14" fill="{{TOKEN:colors.text-secondary}}" text-anchor="middle"><tspan>0%</tspan></text>
        <text x="0" y="-155" font-family="-apple-system, BlinkMacSystemFont, 'Segoe UI', sans-serif" 
              font-size="14" fill="{{TOKEN:colors.text-secondary}}" text-anchor="middle"><tspan>50%</tspan></text>
        <text x="155" y="25" font-family="-apple-system, BlinkMacSystemFont, 'Segoe UI', sans-serif" 
              font-size="14" fill="{{TOKEN:colors.text-secondary}}" text-anchor="middle"><tspan>100%</tspan></text>
        
        
        <g transform="rotate(63)">
            <path d="M 0,-100 L -8,0 L 0,15 L 8,0 Z" fill="{{TOKEN:colors.text}}"/>
        </g>
        <circle cx="0" cy="0" r="15" fill="{{TOKEN:colors.text}}"/>
        <circle cx="0" cy="0" r="8" fill="{{TOKEN:colors.surface}}"/>
        
        
        <text x="0" y="60" font-family="-apple-system, BlinkMacSystemFont, 'Segoe UI', sans-serif" 
              font-size="48" font-weight="bold" fill="{{TOKEN:colors.accent}}" fill-opacity="0.25" text-anchor="middle">
            <tspan>85%</tspan>
        </text>
        
        
        <text x="0" y="100" font-family="-apple-system, BlinkMacSystemFont, 'Segoe UI', 'PingFang SC', 'Microsoft YaHei', sans-serif" 
              font-size="18" font-weight="600" fill="{{TOKEN:colors.text}}" text-anchor="middle">
            <tspan>销售完成率</tspan>
        </text>
        
        
        <rect x="-35" y="115" width="70" height="26" rx="13" fill="{{TOKEN:colors.accent}}" fill-opacity="0.25"/>
        <text x="0" y="133" font-family="-apple-system, BlinkMacSystemFont, 'Segoe UI', 'PingFang SC', 'Microsoft YaHei', sans-serif" 
              font-size="13" fill="{{TOKEN:colors.accent}}" fill-opacity="0.25" text-anchor="middle">
            <tspan>优秀</tspan>
        </text>
    </g>
    
    
    <g id="gauge2" transform="translate(640, 380)">
        
        <path d="M -150,0 A 150,150 0 0,1 150,0" fill="none" stroke="{{TOKEN:colors.border}}" stroke-width="30" stroke-linecap="round"/>
        
        
        <path d="M -150,0 A 150,150 0 0,1 -46.35,-142.65" fill="none" stroke="{{TOKEN:colors.accent}}" stroke-width="30" stroke-linecap="round"/>
        <path d="M -46.35,-142.65 A 150,150 0 0,1 58.68,-138.05" fill="none" stroke="{{TOKEN:colors.accent}}" stroke-opacity="0.6" stroke-width="30" stroke-linecap="round"/>
        <path d="M 58.68,-138.05 A 150,150 0 0,1 150,0" fill="none" stroke="{{TOKEN:colors.accent}}" stroke-opacity="0.4" stroke-width="30" stroke-linecap="round"/>
        
        
        <path d="M -150,0 A 150,150 0 0,1 24.93,-147.91" fill="none" stroke="{{TOKEN:colors.accent}}" stroke-opacity="0.25" stroke-width="30" stroke-linecap="round"/>
        
        
        <line x1="-135" y1="0" x2="-120" y2="0" stroke="{{TOKEN:colors.text-secondary}}" stroke-width="2"/>
        <line x1="-95.5" y1="-95.5" x2="-84.85" y2="-84.85" stroke="{{TOKEN:colors.text-secondary}}" stroke-width="2"/>
        <line x1="0" y1="-135" x2="0" y2="-120" stroke="{{TOKEN:colors.text-secondary}}" stroke-width="2"/>
        <line x1="95.5" y1="-95.5" x2="84.85" y2="-84.85" stroke="{{TOKEN:colors.text-secondary}}" stroke-width="2"/>
        <line x1="135" y1="0" x2="120" y2="0" stroke="{{TOKEN:colors.text-secondary}}" stroke-width="2"/>
        
        
        <text x="-155" y="25" font-family="-apple-system, BlinkMacSystemFont, 'Segoe UI', sans-serif" 
              font-size="14" fill="{{TOKEN:colors.text-secondary}}" text-anchor="middle"><tspan>0%</tspan></text>
        <text x="0" y="-155" font-family="-apple-system, BlinkMacSystemFont, 'Segoe UI', sans-serif" 
              font-size="14" fill="{{TOKEN:colors.text-secondary}}" text-anchor="middle"><tspan>50%</tspan></text>
        <text x="155" y="25" font-family="-apple-system, BlinkMacSystemFont, 'Segoe UI', sans-serif" 
              font-size="14" fill="{{TOKEN:colors.text-secondary}}" text-anchor="middle"><tspan>100%</tspan></text>
        
        
        <g transform="rotate(39.6)">
            <path d="M 0,-100 L -8,0 L 0,15 L 8,0 Z" fill="{{TOKEN:colors.text}}"/>
        </g>
        <circle cx="0" cy="0" r="15" fill="{{TOKEN:colors.text}}"/>
        <circle cx="0" cy="0" r="8" fill="{{TOKEN:colors.surface}}"/>
        
        
        <text x="0" y="60" font-family="-apple-system, BlinkMacSystemFont, 'Segoe UI', sans-serif" 
              font-size="48" font-weight="bold" fill="{{TOKEN:colors.accent}}" fill-opacity="0.25" text-anchor="middle">
            <tspan>72%</tspan>
        </text>
        
        
        <text x="0" y="100" font-family="-apple-system, BlinkMacSystemFont, 'Segoe UI', 'PingFang SC', 'Microsoft YaHei', sans-serif" 
              font-size="18" font-weight="600" fill="{{TOKEN:colors.text}}" text-anchor="middle">
            <tspan>客户满意度</tspan>
        </text>
        
        
        <rect x="-35" y="115" width="70" height="26" rx="13" fill="{{TOKEN:colors.accent}}" fill-opacity="0.25"/>
        <text x="0" y="133" font-family="-apple-system, BlinkMacSystemFont, 'Segoe UI', 'PingFang SC', 'Microsoft YaHei', sans-serif" 
              font-size="13" fill="{{TOKEN:colors.accent}}" fill-opacity="0.25" text-anchor="middle">
            <tspan>良好</tspan>
        </text>
    </g>
    
    
    <g id="gauge3" transform="translate(1060, 380)">
        
        <path d="M -150,0 A 150,150 0 0,1 150,0" fill="none" stroke="{{TOKEN:colors.border}}" stroke-width="30" stroke-linecap="round"/>
        
        
        <path d="M -150,0 A 150,150 0 0,1 -46.35,-142.65" fill="none" stroke="{{TOKEN:colors.accent}}" stroke-width="30" stroke-linecap="round"/>
        <path d="M -46.35,-142.65 A 150,150 0 0,1 58.68,-138.05" fill="none" stroke="{{TOKEN:colors.accent}}" stroke-opacity="0.6" stroke-width="30" stroke-linecap="round"/>
        <path d="M 58.68,-138.05 A 150,150 0 0,1 150,0" fill="none" stroke="{{TOKEN:colors.accent}}" stroke-opacity="0.4" stroke-width="30" stroke-linecap="round"/>
        
        
        <path d="M -150,0 A 150,150 0 0,1 -58.36,-138.17" fill="none" stroke="{{TOKEN:colors.accent}}" stroke-opacity="0.25" stroke-width="30" stroke-linecap="round"/>
        
        
        <line x1="-135" y1="0" x2="-120" y2="0" stroke="{{TOKEN:colors.text-secondary}}" stroke-width="2"/>
        <line x1="-95.5" y1="-95.5" x2="-84.85" y2="-84.85" stroke="{{TOKEN:colors.text-secondary}}" stroke-width="2"/>
        <line x1="0" y1="-135" x2="0" y2="-120" stroke="{{TOKEN:colors.text-secondary}}" stroke-width="2"/>
        <line x1="95.5" y1="-95.5" x2="84.85" y2="-84.85" stroke="{{TOKEN:colors.text-secondary}}" stroke-width="2"/>
        <line x1="135" y1="0" x2="120" y2="0" stroke="{{TOKEN:colors.text-secondary}}" stroke-width="2"/>
        
        
        <text x="-155" y="25" font-family="-apple-system, BlinkMacSystemFont, 'Segoe UI', sans-serif" 
              font-size="14" fill="{{TOKEN:colors.text-secondary}}" text-anchor="middle"><tspan>0%</tspan></text>
        <text x="0" y="-155" font-family="-apple-system, BlinkMacSystemFont, 'Segoe UI', sans-serif" 
              font-size="14" fill="{{TOKEN:colors.text-secondary}}" text-anchor="middle"><tspan>50%</tspan></text>
        <text x="155" y="25" font-family="-apple-system, BlinkMacSystemFont, 'Segoe UI', sans-serif" 
              font-size="14" fill="{{TOKEN:colors.text-secondary}}" text-anchor="middle"><tspan>100%</tspan></text>
        
        
        <g transform="rotate(14.4)">
            <path d="M 0,-100 L -8,0 L 0,15 L 8,0 Z" fill="{{TOKEN:colors.text}}"/>
        </g>
        <circle cx="0" cy="0" r="15" fill="{{TOKEN:colors.text}}"/>
        <circle cx="0" cy="0" r="8" fill="{{TOKEN:colors.surface}}"/>
        
        
        <text x="0" y="60" font-family="-apple-system, BlinkMacSystemFont, 'Segoe UI', sans-serif" 
              font-size="48" font-weight="bold" fill="{{TOKEN:colors.accent}}" fill-opacity="0.25" text-anchor="middle">
            <tspan>58%</tspan>
        </text>
        
        
        <text x="0" y="100" font-family="-apple-system, BlinkMacSystemFont, 'Segoe UI', 'PingFang SC', 'Microsoft YaHei', sans-serif" 
              font-size="18" font-weight="600" fill="{{TOKEN:colors.text}}" text-anchor="middle">
            <tspan>库存周转率</tspan>
        </text>
        
        
        <rect x="-35" y="115" width="70" height="26" rx="13" fill="{{TOKEN:colors.accent}}" fill-opacity="0.25"/>
        <text x="0" y="133" font-family="-apple-system, BlinkMacSystemFont, 'Segoe UI', 'PingFang SC', 'Microsoft YaHei', sans-serif" 
              font-size="13" fill="{{TOKEN:colors.accent}}" fill-opacity="0.25" text-anchor="middle">
            <tspan>需关注</tspan>
        </text>
    </g>
    
    
    <g id="legendBar" transform="translate(340, 600)">
        <rect x="0" y="0" width="600" height="40" rx="8" fill="{{TOKEN:colors.surface}}" stroke="{{TOKEN:colors.border}}" stroke-width="1"/>
        
        <rect x="30" y="12" width="16" height="16" rx="3" fill="{{TOKEN:colors.accent}}"/>
        <text x="55" y="24" font-family="-apple-system, BlinkMacSystemFont, 'Segoe UI', 'PingFang SC', 'Microsoft YaHei', sans-serif" 
              font-size="13" fill="{{TOKEN:colors.text-secondary}}"><tspan>危险 (0-60%)</tspan></text>
        
        <rect x="170" y="12" width="16" height="16" rx="3" fill="{{TOKEN:colors.accent}}" fill-opacity="0.6"/>
        <text x="195" y="24" font-family="-apple-system, BlinkMacSystemFont, 'Segoe UI', 'PingFang SC', 'Microsoft YaHei', sans-serif" 
              font-size="13" fill="{{TOKEN:colors.text-secondary}}"><tspan>警告 (60-80%)</tspan></text>
        
        <rect x="320" y="12" width="16" height="16" rx="3" fill="{{TOKEN:colors.accent}}" fill-opacity="0.4"/>
        <text x="345" y="24" font-family="-apple-system, BlinkMacSystemFont, 'Segoe UI', 'PingFang SC', 'Microsoft YaHei', sans-serif" 
              font-size="13" fill="{{TOKEN:colors.text-secondary}}"><tspan>优秀 (80-100%)</tspan></text>
        
        <text x="500" y="24" font-family="-apple-system, BlinkMacSystemFont, 'Segoe UI', 'PingFang SC', 'Microsoft YaHei', sans-serif" 
              font-size="13" fill="{{TOKEN:colors.text-secondary}}"><tspan>目标: 80%</tspan></text>
    </g>
    
    
    <text x="640" y="695" font-family="-apple-system, BlinkMacSystemFont, 'Segoe UI', 'PingFang SC', 'Microsoft YaHei', sans-serif" 
          font-size="14" fill="{{TOKEN:colors.text-secondary}}" text-anchor="middle">
        <tspan>数据来源: 业务数据平台 · 实时更新</tspan>
    </text>
</svg>

